inDegrees=no
num_controls=7
num_derivatives=13
num_iterations=101
num_multipliers=7
num_parameters=0
num_slacks=7
num_states=26
objective=0.444842
objective_accelerations=0.058297
objective_balance=0.003509
objective_effort=0.023371
objective_height=0.354182
objective_ligament=0.005483
solver_duration=1467.901144
status=Solve_Succeeded
success=true
DataType=double
version=3
OpenSimVersion=4.5
endheader
time	/jointset/ground_pelvis/pelvis_tilt/value	/jointset/ground_pelvis/pelvis_tx/value	/jointset/ground_pelvis/pelvis_ty/value	/jointset/hip_l/hip_flexion_l/value	/jointset/hip_l/hip_adduction_l/value	/jointset/hip_l/hip_rotation_l/value	/jointset/back/lumbar_extension/value	/jointset/patellofemoral_l/patellar_flexion_l/value	/jointset/knee_l/knee_flexion_l/value	/jointset/knee_l/knee_adduction_l/value	/jointset/knee_l/knee_rotation_l/value	/jointset/ankle_l/ankle_angle_l/value	/jointset/subtalar_l/subtalar_angle_l/value	/jointset/ground_pelvis/pelvis_tilt/speed	/jointset/ground_pelvis/pelvis_tx/speed	/jointset/ground_pelvis/pelvis_ty/speed	/jointset/hip_l/hip_flexion_l/speed	/jointset/hip_l/hip_adduction_l/speed	/jointset/hip_l/hip_rotation_l/speed	/jointset/back/lumbar_extension/speed	/jointset/patellofemoral_l/patellar_flexion_l/speed	/jointset/knee_l/knee_flexion_l/speed	/jointset/knee_l/knee_adduction_l/speed	/jointset/knee_l/knee_rotation_l/speed	/jointset/ankle_l/ankle_angle_l/speed	/jointset/subtalar_l/subtalar_angle_l/speed	/forceset/tau_hip_flexion_l	/forceset/tau_hip_adduction_l	/forceset/tau_hip_rotation_l	/forceset/tau_knee_flexion_l	/forceset/tau_ankle_angle_l	/forceset/tau_subtalar_angle_l	/forceset/tau_lumbar_extension	lambda_cid13_p0	lambda_cid13_p1	lambda_cid13_p2	lambda_cid13_p3	lambda_cid13_p4	lambda_cid13_p5	lambda_cid14_p0	/jointset/ground_pelvis/pelvis_tilt/accel	/jointset/ground_pelvis/pelvis_tx/accel	/jointset/ground_pelvis/pelvis_ty/accel	/jointset/hip_l/hip_flexion_l/accel	/jointset/hip_l/hip_adduction_l/accel	/jointset/hip_l/hip_rotation_l/accel	/jointset/back/lumbar_extension/accel	/jointset/patellofemoral_l/patellar_flexion_l/accel	/jointset/knee_l/knee_flexion_l/accel	/jointset/knee_l/knee_adduction_l/accel	/jointset/knee_l/knee_rotation_l/accel	/jointset/ankle_l/ankle_angle_l/accel	/jointset/subtalar_l/subtalar_angle_l/accel	gamma_cid13_p0	gamma_cid13_p1	gamma_cid13_p2	gamma_cid13_p3	gamma_cid13_p4	gamma_cid13_p5	gamma_cid14_p0
1.5	-0.3756031638260198	-0.0244816221475815	0.7597592869487951	1.118745676830753	-0.4353589839076979	-0.2135068667107951	-0.225435179741228	0.8095564624735977	0.8095564624736299	-0.1286007367544916	-0.1485034861730599	0.1285199600655814	-0.01954730344524001	0.6937625236320318	0.2800238447324842	0.5423798693521998	-2.498182656720249	0.2080666247908519	-0.7281710859340349	0.3135826871151651	-2.027543686365162	-2.027543686365405	-0.1359523577899257	0.1267035838683843	-0.392142461219316	0.03882241428492137	-0.1789473624480692	0.03250178137839347	-0.008597473243302362	-0.1986831530646678	0.03789139944193567	0.04222445363289843	0.1711020139412612	-19.93747177916148	-17.83422559969462	5.919278172667669	-6.639495537164277	-519.2610879860842	-59.30540269508496	-24.78991861529941	0.6992154271822554	0.6949754740757244	-0.5360924025870935	-1.271862269330793	0.72951510515722	-0.2274037862088372	1.464229306789153	-1.30743392086821	-1.30743392086823	0.1534947625486466	0.2010711448245616	-0.5371934731465381	0.5166639622404686	5.50559044605954e-07	2.687182019804365e-07	-3.304837165458162e-06	-1.860404698932618e-07	7.73241190856355e-07	-1.033676573210197e-07	4.901911538313605e-07
1.51	-0.3686306078422338	-0.02164695546560803	0.7651552208225947	1.09370183585948	-0.4332436109113972	-0.2207958321070683	-0.2222275267128893	0.7892176760542065	0.7892176760542379	-0.1299580806287233	-0.1472257793207932	0.1245716778984291	-0.01913549462709362	0.7006457175307362	0.2868678490906514	0.536692590759366	-2.510238583210518	0.2149822191018163	-0.7294795726497477	0.3279105768389078	-2.039942954433099	-2.039942954433242	-0.1355458221559236	0.1288604521383741	-0.3974545828937597	0.043532521375814	-0.172952023634718	0.03199452882346612	-0.008255090362977885	-0.1955373620013436	0.03742772600678128	0.04142608057338526	0.1662211739770765	-19.87283633223632	-17.50933258457779	5.8795001054508	-6.318389200183916	-515.2430315017679	-59.38021265868694	-25.71358064865084	0.6675020391445232	0.6728320304442796	-0.6020263283687431	-1.120324852315818	0.6690995829842951	-0.06072942495456111	1.411467548124831	-1.165679039023385	-1.165679039008356	-0.02024766271600852	0.2257193158409912	-0.5193307566754148	0.4474979910663539	5.734821291212953e-07	3.363179346164806e-07	-3.364724355949771e-06	-1.771054081491919e-07	8.122085160402885e-07	-1.915926671373403e-08	5.040941178602955e-07
1.52	-0.3615922937858742	-0.01874510491730146	0.7704908857623186	1.068547862220618	-0.4310597783742026	-0.2280935140326396	-0.2188777150387211	0.7687629957962836	0.7687629957963125	-0.1313122552719267	-0.1459259588562724	0.1205720526661159	-0.01867672195632771	0.7069141381466383	0.2934606179991069	0.5303260825370464	-2.520209190238419	0.2217585329695102	-0.7299143917935426	0.3420144162809699	-2.050722454071713	-2.050722454071756	-0.1353185115836007	0.1311263063185561	-0.4024110742514885	0.04821518480881436	-0.1669566848213575	0.0314872762685391	-0.007912707482676163	-0.1923915709380175	0.03696405257162621	0.04062770751387244	0.1613403340129011	-19.81105820651897	-17.18667468121052	5.843205402561517	-6.040008494246955	-511.2907597387532	-59.52222699137686	-26.63655002544934	0.5762607706217693	0.6447283841333792	-0.6719383284842529	-0.8547983768570122	0.7016590165031258	-0.05267027182523495	1.419419250453076	-0.9834802350035871	-0.9834802350035862	0.1176497502128205	0.2228683268630125	-0.4660674098035509	0.511175230662018	5.435871856154004e-07	6.600122117444175e-07	-2.90310345044426e-06	-7.774038953203155e-08	7.784590505234075e-07	7.635128381108551e-08	4.867724077606931e-07
1.53	-0.3544944195542231	-0.01577853795430727	0.7757595709855926	1.043304615169921	-0.4288087268423684	-0.2353947451897132	-0.2153880646578727	0.748209059067517	0.7482090590675333	-0.1326623032643031	-0.1446054079620408	0.1165250072651757	-0.01817080912967668	0.7125495960069477	0.2998148928801228	0.523303559029465	-2.52808755899671	0.228422675659479	-0.7302217421477623	0.3558755112047132	-2.05976519422432	-2.059765194224249	-0.134692043570332	0.1329764900925546	-0.4069081289029241	0.05297466691513885	-0.1607044949594696	0.03011228057088959	-0.007600894203502546	-0.1899336772957289	0.03729247415156552	0.03999330444200526	0.1562782297208083	-19.50090915412157	-16.98460775964183	5.832863213271946	-6.000689406653332	-507.4953551544529	-59.92838416678382	-27.55873572184377	0.5405324611478957	0.6251392500562601	-0.7333982215711304	-0.7014374400866884	0.6443915105880157	-0.002886825932470416	1.363432310748646	-0.8197981348914183	-0.8197981348743258	0.03521740330651586	0.1646773775941633	-0.4279888084766144	0.4593322886691378	4.575730873369426e-07	1.255806942394987e-06	-1.887380192941814e-06	1.177064582627864e-07	6.674479948869119e-07	1.838703792482847e-07	4.3627448139952e-07
1.54	-0.3473435219104861	-0.01274955580050878	0.7809548332018554	1.017993168168689	-0.4264919139605648	-0.2426956737320708	-0.2117610077883039	0.7275736694913273	0.7275736694913256	-0.1340060721612746	-0.1432666384350716	0.1124356984545888	-0.01761710196435205	0.7175188205637496	0.3059436561599662	0.5156414811348432	-2.533849180345866	0.2349108029632165	-0.7298538688504652	0.3694957140250029	-2.067013023557012	-2.067013023556827	-0.1340626925001566	0.134770032863588	-0.4108637561808821	0.05777405254352243	-0.1544523050975664	0.02873728487324678	-0.007289080924417778	-0.1874757836534314	0.03762089573150676	0.03935890137014818	0.1512161254287273	-19.19235135949371	-16.78474770721028	5.825712898421598	-5.99315435686905	-503.7408595083673	-60.37899706120501	-28.48074201652745	0.4430141099203295	0.5996260638988801	-0.7998492058923031	-0.4314488950303412	0.6664559392568777	0.08237445847816552	1.371240829762356	-0.6244980710204644	-0.6244980710204595	0.118226361594176	0.2115401262699693	-0.3577819351080538	0.5191559350738389	4.191840165990007e-07	1.550797956878289e-06	-1.420166021154078e-06	2.109884368721759e-07	6.270887993468902e-07	2.654224658580554e-07	4.12835863837497e-07
